<?xml version="1.0" standalone="no"?>
<!DOCTYPE svg PUBLIC "-//W3C//DTD SVG 20010904//EN"
 "http://www.w3.org/TR/2001/REC-SVG-20010904/DTD/svg10.dtd">
<svg version="1.0" xmlns="http://www.w3.org/2000/svg"
 width="1024.000000pt" height="1024.000000pt" viewBox="0 0 1024.000000 1024.000000"
 preserveAspectRatio="xMidYMid meet">
<metadata>
Created by potrace 1.11, written by Peter Selinger 2001-2013
</metadata>
<g transform="translate(0.000000,1024.000000) scale(0.100000,-0.100000)"
fill="#000000" stroke="none">
<path d="M3215 9233 c-270 -22 -586 -116 -835 -250 -89 -48 -269 -165 -317
-206 -15 -14 -53 -46 -83 -72 -96 -83 -215 -208 -280 -294 -14 -18 -30 -38
-35 -44 -6 -7 -41 -58 -78 -114 -74 -114 -169 -304 -217 -436 -33 -92 -86
-291 -96 -361 -3 -22 -9 -63 -12 -91 l-7 -50 -628 -3 -627 -2 2 -218 3 -217
623 0 c615 0 623 0 627 -20 2 -11 11 -65 20 -120 92 -581 446 -1117 955 -1448
186 -121 418 -223 630 -278 61 -15 97 -23 215 -44 78 -14 184 -20 335 -20 147
0 192 3 317 20 354 47 754 224 1047 465 445 364 735 905 783 1464 12 142 4
469 -12 496 -2 3 -6 30 -10 60 -4 30 -9 58 -11 61 -2 3 -6 21 -9 40 -3 19 -15
68 -27 109 -183 662 -681 1202 -1333 1445 -55 21 -113 41 -130 46 -16 4 -55
14 -85 22 -62 17 -144 33 -207 42 -23 3 -57 8 -75 11 -39 6 -385 12 -443 7z
m385 -497 c180 -27 269 -50 418 -108 487 -189 867 -616 997 -1120 63 -242 68
-543 14 -783 -20 -90 -80 -258 -124 -350 -47 -97 -160 -272 -222 -344 -234
-272 -525 -456 -856 -541 -283 -73 -549 -74 -837 -4 -159 39 -424 158 -525
236 -255 196 -388 342 -514 563 -81 142 -163 370 -186 520 -4 22 -10 63 -15
90 -9 55 -6 380 5 435 38 203 78 328 150 476 163 335 422 597 755 764 135 68
314 129 425 145 22 3 46 8 53 10 8 3 44 8 80 11 37 4 68 8 70 9 6 5 268 -3
312 -9z"/>
<path d="M4688 3785 c-2 -1 -23 -5 -48 -8 -181 -22 -332 -92 -510 -238 -69
-56 -127 -105 -130 -108 -3 -3 -36 -33 -75 -66 -38 -33 -72 -62 -75 -65 -3 -3
-66 -59 -140 -125 -74 -66 -137 -122 -140 -125 -3 -3 -41 -37 -85 -75 -44 -39
-82 -72 -85 -75 -3 -3 -32 -28 -65 -55 -33 -28 -62 -52 -65 -56 -3 -3 -43 -35
-90 -73 -47 -37 -92 -73 -100 -79 -8 -7 -49 -37 -90 -68 -67 -49 -126 -89
-295 -198 -78 -50 -340 -176 -440 -211 -106 -37 -258 -76 -335 -85 -30 -4 -64
-9 -75 -12 -11 -2 -69 -4 -130 -5 -253 -2 -456 102 -524 269 -29 72 -38 190
-21 264 39 160 176 293 350 340 72 19 177 18 250 -2 36 -10 66 -16 67 -15 7 7
-139 67 -210 86 -161 44 -302 33 -445 -36 -105 -51 -199 -134 -246 -219 -120
-216 -144 -553 -62 -840 133 -459 467 -763 981 -894 44 -11 96 -23 115 -26 19
-3 46 -7 60 -10 110 -20 509 -27 705 -12 55 4 122 10 149 12 27 2 65 6 85 9
20 3 63 8 96 12 90 9 459 70 590 99 683 147 1225 366 1600 645 85 63 202 163
235 200 14 16 21 12 90 -52 235 -219 570 -412 980 -565 125 -47 431 -144 500
-158 8 -2 71 -17 140 -34 111 -26 331 -72 415 -86 17 -2 47 -7 69 -10 21 -4
46 -8 55 -10 9 -2 44 -6 76 -10 33 -4 69 -9 80 -11 38 -7 231 -28 380 -41 185
-16 603 -9 706 13 13 2 40 7 59 10 33 4 83 14 105 20 239 65 358 117 517 226
259 177 450 472 504 776 2 12 7 34 10 50 3 15 8 95 9 177 10 439 -162 710
-493 778 -64 13 -191 15 -247 3 -84 -17 -282 -92 -272 -103 2 -2 24 4 48 12
24 9 79 17 121 19 340 14 591 -286 492 -587 -53 -161 -210 -267 -436 -295 -72
-9 -95 -9 -228 2 -237 21 -528 123 -815 285 -226 128 -641 449 -939 726 -9 9
-86 77 -416 369 -19 17 -69 58 -110 91 -41 33 -77 62 -80 65 -14 16 -112 74
-166 100 -175 82 -397 106 -619 66 -129 -23 -304 -97 -430 -181 -46 -30 -86
-55 -89 -55 -3 0 -33 20 -68 44 -124 87 -291 158 -448 191 -68 14 -292 29
-302 20z"/>
</g>
</svg>
